# xmcd
#
# Track frame offsets:
# 150
# 17048
# 29759
# 44486
# 57089
# 71169
# 83946
# 97867
# 112437
# 125229
# 137618
# 153888
# 166966
# 179961
# 194271
# 207037
# 221762
# 237752
# 249744
# 264348
# 281326
# 294789
# 308560
#
# Disc length: 4298 seconds
#
#
# Revision: 0
# Processed by: cddbd v1.5.2PL0 Copyright (c) Steve Scherf et al.
# Submitted via: FreeRIP 2.945 
#
DISCID=5810c817
DTITLE=Henrick e Ruan - Eu Quero Só Você - Ao Vivo em Brasília
DYEAR=2011
DGENRE=Sertanejo
TTITLE0=Eu Quero Só Você
TTITLE1=Nova Namorada
TTITLE2=Rebola, Mexe
TTITLE3=Já Era
TTITLE4=Don Ruan
TTITLE5=Rolar o Movimento
TTITLE6=Vem, Faz Comigo Amor
TTITLE7=Pra Nunca Mais
TTITLE8=To Nem Aí
TTITLE9=Amor de Balada
TTITLE10=Não Posso Esquecer
TTITLE11=No Jogo do Amor
TTITLE12=Só Saio Com as Top
TTITLE13=O Mundo Gira
TTITLE14=Mulher Tsunami
TTITLE15=Pisa Que Eu Gamo
TTITLE16=Grita, Xinga, Briga
TTITLE17=Pára Tudo
TTITLE18=Badalar
TTITLE19=Zoar e Beber
TTITLE20=Vamos Pra Lá Beber
TTITLE21=Diversão
TTITLE22=Nossa História
EXTD=
EXTT0=Henrick e Ruan - Eu Quero Só Você - Ao Vivo em Brasília
EXTT1=Henrick e Ruan - Eu Quero Só Você - Ao Vivo em Brasília
EXTT2=Henrick e Ruan - Eu Quero Só Você - Ao Vivo em Brasília
EXTT3=Henrick e Ruan - Eu Quero Só Você - Ao Vivo em Brasília
EXTT4=Henrick e Ruan - Eu Quero Só Você - Ao Vivo em Brasília
EXTT5=Henrick e Ruan - Eu Quero Só Você - Ao Vivo em Brasília
EXTT6=Henrick e Ruan - Eu Quero Só Você - Ao Vivo em Brasília
EXTT7=Henrick e Ruan - Eu Quero Só Você - Ao Vivo em Brasília
EXTT8=Henrick e Ruan - Eu Quero Só Você - Ao Vivo em Brasília
EXTT9=Henrick e Ruan - Eu Quero Só Você - Ao Vivo em Brasília
EXTT10=Henrick e Ruan - Eu Quero Só Você - Ao Vivo em Brasília
EXTT11=Henrick e Ruan - Eu Quero Só Você - Ao Vivo em Brasília
EXTT12=Henrick e Ruan - Eu Quero Só Você - Ao Vivo em Brasília
EXTT13=Henrick e Ruan - Eu Quero Só Você - Ao Vivo em Brasília
EXTT14=Henrick e Ruan - Eu Quero Só Você - Ao Vivo em Brasília
EXTT15=Henrick e Ruan - Eu Quero Só Você - Ao Vivo em Brasília
EXTT16=Henrick e Ruan - Eu Quero Só Você - Ao Vivo em Brasília
EXTT17=Henrick e Ruan - Eu Quero Só Você - Ao Vivo em Brasília
EXTT18=Henrick e Ruan - Eu Quero Só Você - Ao Vivo em Brasília
EXTT19=Henrick e Ruan - Eu Quero Só Você - Ao Vivo em Brasília
EXTT20=Henrick e Ruan - Eu Quero Só Você - Ao Vivo em Brasília
EXTT21=Henrick e Ruan - Eu Quero Só Você - Ao Vivo em Brasília
EXTT22=Henrick e Ruan - Eu Quero Só Você - Ao Vivo em Brasília
PLAYORDER=
